<svg width="86" height="41" viewBox="0 0 86 41" fill="none" xmlns="http://www.w3.org/2000/svg">
<path d="M3 12.5328C3 14.5265 3 16.5203 3 18.5141C3 19.5549 3.13952 19.5566 3.67195 18.8813C4.47917 17.8574 5.27163 16.7646 5.98536 15.577C8.10195 12.0551 10.2317 8.52072 12.1577 4.73103C12.4024 4.24944 13.6767 1.73027 13.5016 3.81317C12.9562 10.2982 10.4123 16.5864 8.71154 22.415C7.66524 26.0008 6.12317 29.8229 5.4382 33.6434C5.14581 35.2743 6.07186 30.384 6.57091 28.8858C7.8178 25.1428 9.43094 21.4808 11.2553 18.3917C11.59 17.8251 12.3043 16.7453 11.7545 18.407C10.4925 22.2212 8.58122 25.8415 6.7053 28.9317C6.51314 29.2483 5.06984 31.5974 5.95656 29.8496C8.24941 25.3303 10.9521 21.0596 13.6359 17.122C13.8122 16.8635 15.7194 14.128 15.2774 16.1583C14.7342 18.6534 13.6646 20.9715 12.82 23.2105C11.6904 26.205 10.5859 29.2255 9.44108 32.2054C8.90434 33.6025 7.42012 37.9105 7.89561 36.4581C8.69608 34.0131 9.87136 31.7879 10.929 29.6354C13.121 25.1742 15.4136 20.8378 17.7636 16.5866C18.8705 14.5842 19.9999 12.6146 21.1233 10.6359C21.2475 10.4173 22.58 7.56242 22.8896 7.66815C23.1108 7.7437 22.6972 8.32598 22.5632 8.6166C22.1315 9.55346 21.4589 10.8123 21.0082 11.6455C19.3207 14.765 17.5766 17.8058 15.8822 20.9158C14.7716 22.9543 13.3001 24.9541 12.3593 27.2031C12.2059 27.5697 12.5518 26.3713 12.6952 25.9946C13.4908 23.9044 14.6326 22.1958 15.8246 20.6864C17.8054 18.1779 20.0506 15.8723 22.4096 14.3685C22.9144 14.0467 24.0963 13.0179 23.408 14.6438C22.0012 17.9666 20.1361 20.8313 18.378 23.6694C18.1195 24.0866 17.3572 25.3303 17.6676 25.0156C18.529 24.142 19.27 22.4486 19.9138 21.2524C21.9084 17.5466 23.7039 13.5666 25.827 10.0393C27.8492 6.67955 24.8237 13.1842 24.5887 13.6189C20.9651 20.3208 17.2239 26.8875 13.5592 33.5363C13.2204 34.1509 12.0641 35.5524 12.5704 35.4179C13.2547 35.2362 15.0397 31.8894 15.383 31.3946C19.614 25.298 23.8618 19.145 28.342 13.5118C29.2449 12.3765 30.1695 11.1242 31.1833 10.2381C31.4408 10.0131 31.6607 9.961 31.4137 10.5441C30.4023 12.9319 29.0173 15.01 27.7852 17.0914C25.8843 20.3029 23.9706 23.4953 22.0641 26.6983C21.242 28.0793 20.454 29.4729 19.7027 30.951C19.4608 31.4267 19.0434 31.9607 19.6259 31.0428C21.8928 27.4703 24.3 23.9378 26.8253 20.8393C27.5813 19.9117 28.3659 18.9919 29.2347 18.3458C29.4393 18.1937 29.8685 17.8872 29.5323 18.5447C28.3774 20.8035 26.8778 22.7078 25.635 24.8626C25.3142 25.4188 23.8995 27.6692 25.2894 26.1476C27.6594 23.553 29.9811 20.8525 32.3641 18.2846C32.9738 17.6276 33.8061 16.4177 34.5719 16.1736C35.0823 16.0109 34.2463 17.768 33.9671 18.4682C32.0501 23.2754 29.866 27.78 27.67 32.2666C27.5086 32.5963 27.0427 33.607 27.1901 33.2609C27.9921 31.3773 28.8662 29.5727 29.7243 27.7538C31.8606 23.2254 34.0367 18.7425 36.5397 14.705C37.6775 12.8697 36.5763 15.4606 36.2325 16.0818C34.5604 19.1037 32.9791 22.2965 31.3753 25.4133C31.0917 25.9646 30.6582 26.6391 30.5114 27.3408C30.2576 28.5542 31.4946 25.3186 31.9897 24.3119C34.5159 19.1755 37.2044 13.878 40.2642 9.50386C40.3425 9.39189 41.8009 7.27066 41.4833 8.93785C40.926 11.8635 39.299 14.6156 38.21 17.0302C35.5347 22.9619 32.8517 29.0606 30.5978 35.4332C30.4128 35.9561 29.7493 37.369 30.0506 37.0088C31.0268 35.8421 31.8895 34.0833 32.748 32.7255C35.7172 28.0299 38.4374 22.9276 41.4737 18.3458C43.1928 15.7517 41.731 18.868 41.0897 20.0592C39.2779 23.4249 37.3735 26.5502 35.7814 30.2014C35.518 30.8055 34.61 32.326 35.0422 32.0677C35.8479 31.5863 37.2161 28.5374 37.73 27.7385C39.6198 24.8009 41.564 21.9521 43.528 19.1413C43.8871 18.6273 44.8871 16.8321 45.5054 16.4489C46.5273 15.8157 44.4379 19.5075 43.8159 20.9464C43.5548 21.5504 43.3477 22.2142 43.0864 22.8127C43.0296 22.9428 43.4954 21.6595 43.5472 21.5583C44.2688 20.1477 45.3685 18.1318 46.5037 17.5504C46.6084 17.4967 46.5156 17.9235 46.4557 18.0705C45.6258 20.1096 44.6855 22.0516 43.8063 24.0365C42.5608 26.8485 41.261 29.6704 40.1874 32.6643C39.9774 33.2501 40.61 31.4878 40.8786 30.9663C42.0366 28.7181 43.4665 26.8187 44.8335 24.9085C45.2131 24.378 51.2662 16.2259 51.3897 16.5407C51.7626 17.4915 48.9269 22.1224 48.558 22.8739C48.4356 23.1232 46.902 26.2691 47.4252 25.1685C49.4742 20.8585 52.3621 17.003 54.9894 13.6342C56.1585 12.1352 57.3883 10.6051 58.6947 9.41207C58.9148 9.2111 59.5258 8.77439 59.0595 9.59564C58.1068 11.2738 56.9911 12.7605 55.9782 14.3379C53.3897 18.3685 50.9544 22.6239 48.558 26.9431C47.0411 29.6769 45.5708 32.4484 44.1999 35.372C43.8174 36.1877 42.6027 38.4762 43.1344 37.9114C43.8731 37.1266 44.5342 35.7932 45.1406 34.806C47.1411 31.5493 49.1715 28.3591 51.3225 25.3521C52.6822 23.4514 54.0743 21.618 55.5846 20.0286C55.8253 19.7753 56.2436 19.1713 56.5637 19.1413C57.2709 19.075 55.4867 20.6083 54.9414 21.3289C54.4791 21.9399 52.6429 24.0704 54.3271 22.109C57.1216 18.8547 60.2 16.2295 62.8896 12.7469C64.5309 10.6217 63.1336 13.4697 62.544 14.4756C60.5829 17.8215 58.1524 20.2532 55.8918 23.0269C55.8582 23.0681 54.56 24.6288 55.5078 23.8224C57.0076 22.5463 58.4647 21.1235 59.9426 19.7838C60.7535 19.0488 61.5506 18.3168 62.2849 17.3974C62.4086 17.2424 62.7513 16.82 62.7072 17.0608C62.5076 18.1514 61.5103 19.337 61.037 20.0286C59.7514 21.9065 58.4188 23.7097 57.1205 25.5663C56.233 26.8353 53.331 30.0334 54.4423 29.3448C55.6659 28.5864 56.8662 26.8939 57.8884 25.6581C59.7586 23.3971 61.4862 20.9192 63.0432 18.1164C63.9248 16.5292 64.7599 14.8641 65.4238 13.0223C65.448 12.9551 66.1096 11.0173 65.7598 12.3645C63.6922 20.3271 59.0492 26.988 55.1334 32.6949C54.2331 34.007 53.3102 35.4333 52.2633 36.4581C52.0778 36.6397 51.5469 36.8205 51.6105 36.4887C51.7814 35.5974 52.7716 33.6156 53.012 33.1539C56.4071 26.6314 60.3349 20.838 63.7631 14.3379C64.4817 12.9755 65.2358 10.8571 65.7118 13.5118C65.7413 13.6763 65.6544 14.2311 65.7214 14.3379C65.8634 14.5641 67.8352 14.6354 68.1596 14.6744C69.2025 14.7999 69.9187 14.2347 70.7706 13.3588C70.842 13.2854 71.8649 12.5137 71.8649 12.8693C71.8649 13.0751 71.0796 14.2965 70.9722 14.4603C70.3663 15.3839 69.6419 15.8834 68.9947 16.6937C67.7907 18.2013 66.929 20.153 66.0766 22.1549C65.441 23.6475 64.6961 26.1319 63.5616 26.8207C62.9745 27.1771 62.322 27.0956 61.7089 27.1266C60.5543 27.185 59.9924 28.3367 59.5011 29.8802C59.3657 30.3054 58.8021 31.7732 59.5203 31.4099C61.9666 30.1723 64.2209 26.3488 66.1629 23.8224C67.7436 21.766 69.187 19.5019 70.6746 17.3209C71.8566 15.5879 75.938 11.5489 74.8023 13.3588C72.7193 16.6783 71.7374 21.3612 70.6746 25.7651C70.1244 28.0448 69.8682 30.8459 69.8682 33.2762C69.8682 33.6607 69.7377 34.4104 69.9834 33.8881C70.6838 32.4001 71.534 30.9821 72.0761 29.3295C72.8774 26.8864 73.2637 24.2272 74.0151 21.7725C74.6424 19.723 75.0362 17.48 75.5606 15.3628C75.6892 14.8435 76.0299 12.7286 76.5397 12.5481C76.9893 12.3888 77.453 12.3007 77.9124 12.2421C78.275 12.1959 79.346 11.308 79.6115 11.4772C79.8849 11.6516 77.5474 16.6359 77.682 16.8773C77.8065 17.1005 79.4491 15.8348 79.1123 16.8008C78.7422 17.8625 78.3987 18.9791 77.9508 19.9674C77.0708 21.9091 76.9641 23.1589 76.9525 25.5357C76.9436 27.3545 76.9018 29.2637 76.6933 31.0581C76.5569 32.2319 76.6129 31.2033 76.6933 30.691C76.926 29.2077 76.7776 28.6915 77.5092 27.6314C78.5027 26.1922 79.4979 24.79 80.4082 23.2105C80.9402 22.2872 81.6138 20.3685 82.3089 19.7532C82.8374 19.2852 83 19.1344 83 18.0399" stroke="#980BCA" stroke-opacity="0.22" stroke-width="5"/>
</svg>
